<svg width="76" height="54" viewBox="0 0 76 54" fill="none" xmlns="http://www.w3.org/2000/svg">
<path d="M11.0527 14.9785L6.0415 15.1719L5.28418 21.7783L11.4556 21.5688C11.7349 21.5796 11.8745 21.7192 11.8745 21.9878L11.4556 25.3232C11.4341 25.5488 11.2944 25.6885 11.0366 25.7422L1.12695 26.0645C0.890625 26.0645 0.772461 25.9624 0.772461 25.7583L3.56006 1.37891C3.60303 1.15332 3.74268 1.02979 3.979 1.0083L12.8091 0.702148C13.0776 0.734375 13.2119 0.879395 13.2119 1.13721L12.8091 4.47266C12.7769 4.74121 12.6372 4.88623 12.3901 4.90771L7.20166 5.05273L6.50879 11.0469L11.4717 10.8696C11.751 10.8804 11.8906 11.02 11.8906 11.2886L11.4717 14.5757C11.4287 14.8228 11.2891 14.957 11.0527 14.9785ZM19.547 1.28223L17.2428 21.7622L23.4142 21.5205C23.6935 21.5312 23.8331 21.6709 23.8331 21.9395L23.4142 25.2749C23.382 25.5542 23.2423 25.6992 22.9953 25.71L13.0695 26.0645C12.8439 26.0645 12.7311 25.9624 12.7311 25.7583L15.4865 1.37891C15.5079 1.25 15.5402 1.15869 15.5831 1.10498C15.6369 1.05127 15.7389 1.01904 15.8893 1.0083L19.1281 0.895508C19.4074 0.90625 19.547 1.03516 19.547 1.28223ZM30.2971 26.2417C28.4925 26.2417 27.1282 25.7046 26.2044 24.6304C25.2805 23.5562 24.8186 22.2134 24.8186 20.6021C24.8186 16.4985 25.2322 12.4434 26.0594 8.43652C26.7146 5.28906 27.6223 3.18359 28.7825 2.12012C29.8782 1.13184 31.323 0.637695 33.117 0.637695C34.9217 0.637695 36.2859 1.18018 37.2097 2.26514C38.1443 3.3501 38.6116 4.6875 38.6116 6.27734C38.6116 7.85645 38.5096 9.77393 38.3054 12.0298C38.1013 14.2749 37.8489 16.1548 37.5481 17.6694C37.2473 19.1733 36.9895 20.2744 36.7747 20.9727C36.5706 21.6602 36.2859 22.3584 35.9207 23.0674C35.5554 23.7764 35.1311 24.3457 34.6477 24.7754C33.5628 25.7529 32.1126 26.2417 30.2971 26.2417ZM30.7161 22.439C32.0804 22.439 32.9558 21.1821 33.3426 18.6685C33.6004 17.0034 33.8582 14.9302 34.116 12.4487C34.3738 9.96729 34.5027 8.22168 34.5027 7.21191C34.5027 6.20215 34.3362 5.48779 34.0032 5.06885C33.6809 4.6499 33.219 4.44043 32.6175 4.44043C31.3714 4.44043 30.5281 5.70264 30.0877 8.22705C29.8299 9.70947 29.5721 11.7236 29.3142 14.2695C29.0564 16.8047 28.9275 18.5933 28.9275 19.6353C28.9275 20.6772 29.094 21.4077 29.427 21.8267C29.7708 22.2349 30.2005 22.439 30.7161 22.439ZM47.9277 1.28223L45.9457 18.9424C45.6449 21.6924 44.7319 23.6045 43.2065 24.6787C41.7885 25.6777 39.8012 26.1772 37.2445 26.1772C36.976 26.1772 36.8417 26.0483 36.8417 25.7905L37.2284 22.6484C37.2821 22.3906 37.4164 22.2617 37.6313 22.2617C39.5863 22.2617 40.8271 21.8159 41.3534 20.9243C41.6005 20.5161 41.7616 19.9736 41.8368 19.2969L43.8671 1.37891C43.8886 1.25 43.9208 1.15869 43.9638 1.10498C44.0175 1.05127 44.1195 1.01904 44.2699 1.0083L47.5087 0.895508C47.788 0.916992 47.9277 1.0459 47.9277 1.28223ZM53.2154 26.2417C51.4107 26.2417 50.0464 25.7046 49.1226 24.6304C48.1988 23.5562 47.7369 22.2134 47.7369 20.6021C47.7369 16.4985 48.1504 12.4434 48.9776 8.43652C49.6329 5.28906 50.5406 3.18359 51.7007 2.12012C52.7964 1.13184 54.2413 0.637695 56.0352 0.637695C57.8399 0.637695 59.2042 1.18018 60.128 2.26514C61.0626 3.3501 61.5298 4.6875 61.5298 6.27734C61.5298 7.85645 61.4278 9.77393 61.2237 12.0298C61.0196 14.2749 60.7671 16.1548 60.4664 17.6694C60.1656 19.1733 59.9078 20.2744 59.6929 20.9727C59.4888 21.6602 59.2042 22.3584 58.8389 23.0674C58.4737 23.7764 58.0494 24.3457 57.566 24.7754C56.481 25.7529 55.0308 26.2417 53.2154 26.2417ZM53.6343 22.439C54.9986 22.439 55.8741 21.1821 56.2608 18.6685C56.5186 17.0034 56.7764 14.9302 57.0342 12.4487C57.292 9.96729 57.421 8.22168 57.421 7.21191C57.421 6.20215 57.2545 5.48779 56.9214 5.06885C56.5992 4.6499 56.1373 4.44043 55.5357 4.44043C54.2896 4.44043 53.4463 5.70264 53.0059 8.22705C52.7481 9.70947 52.4903 11.7236 52.2325 14.2695C51.9747 16.8047 51.8458 18.5933 51.8458 19.6353C51.8458 20.6772 52.0123 21.4077 52.3453 21.8267C52.689 22.2349 53.1187 22.439 53.6343 22.439ZM75.6315 5.95508C75.6315 9.15625 74.3962 11.3638 71.9255 12.5776C72.7634 12.9321 73.4187 13.48 73.8913 14.2212C74.364 14.9517 74.6003 15.8916 74.6003 17.041C74.6003 18.1904 74.4284 19.2808 74.0847 20.312C73.7517 21.3433 73.2307 22.2778 72.5217 23.1157C71.0178 24.8989 68.6276 25.8442 65.3513 25.9517L61.8869 26.0645C61.6506 26.043 61.5324 25.9409 61.5324 25.7583L64.3039 1.50781C64.3254 1.31445 64.3737 1.18555 64.4489 1.12109C64.5241 1.0459 65.1955 0.965332 66.4631 0.879395C67.7307 0.782715 68.9392 0.734375 70.0886 0.734375C72.0222 0.734375 73.4294 1.20166 74.3103 2.13623C75.1911 3.06006 75.6315 4.33301 75.6315 5.95508ZM67.7844 14.1729C67.3439 14.1729 67.0539 14.1782 66.9143 14.189L66.0441 22.0361C67.5803 22.0361 68.7404 21.5474 69.5246 20.5698C70.3195 19.5923 70.717 18.3086 70.717 16.7188C70.717 15.9668 70.4592 15.3545 69.9436 14.8818C69.4279 14.4092 68.7082 14.1729 67.7844 14.1729ZM67.1882 11.627C70.2712 11.6055 71.8127 9.97266 71.8127 6.72852C71.8127 5.02051 70.9318 4.1665 69.1701 4.1665C68.676 4.1665 68.2893 4.18262 68.01 4.21484L67.1882 11.627ZM11.1333 52.2749C11.1118 52.4038 11.0742 52.4951 11.0205 52.5488C10.9668 52.6025 10.4404 52.7207 9.44141 52.9033C8.44238 53.0859 7.43262 53.1772 6.41211 53.1772C4.73633 53.1772 3.45264 52.6348 2.56104 51.5498C1.66943 50.4648 1.22363 48.9878 1.22363 47.1187C1.22363 43.7993 1.62109 39.9429 2.41602 35.5493C2.83496 33.186 3.35059 31.5264 3.96289 30.5703C4.60742 29.5713 5.38086 28.873 6.2832 28.4756C7.41113 27.9814 8.61426 27.7344 9.89258 27.7344C11.1816 27.7344 12.041 27.772 12.4707 27.8472C12.9111 27.9116 13.1582 27.9492 13.2119 27.96C13.3516 28.0029 13.4214 28.1372 13.4214 28.3628L13.0508 31.3599C13.0078 31.6392 12.9004 31.7788 12.7285 31.7788C12.5566 31.7788 12.1592 31.7358 11.5361 31.6499C10.9131 31.5532 10.4082 31.5049 10.0215 31.5049C8.99023 31.5049 8.20605 31.7681 7.66895 32.2944C7.13184 32.8101 6.729 33.8091 6.46045 35.2915C6.20264 36.7632 5.9502 38.7451 5.70312 41.2373C5.45605 43.7188 5.33252 45.6201 5.33252 46.9414C5.33252 48.499 6.02002 49.2778 7.39502 49.2778C7.79248 49.2778 8.48535 49.2134 9.47363 49.0845C10.4619 48.9448 11.0259 48.875 11.1655 48.875C11.3911 48.875 11.5039 49.0093 11.5039 49.2778L11.1333 52.2749ZM19.0314 28.2822L16.7272 48.7622L22.8986 48.5205C23.1779 48.5312 23.3175 48.6709 23.3175 48.9395L22.8986 52.2749C22.8663 52.5542 22.7267 52.6992 22.4796 52.71L12.5538 53.0645C12.3283 53.0645 12.2155 52.9624 12.2155 52.7583L14.9708 28.3789C14.9923 28.25 15.0246 28.1587 15.0675 28.105C15.1212 28.0513 15.2233 28.019 15.3737 28.0083L18.6124 27.8955C18.8917 27.9062 19.0314 28.0352 19.0314 28.2822ZM29.7815 53.2417C27.9768 53.2417 26.6126 52.7046 25.6887 51.6304C24.7649 50.5562 24.303 49.2134 24.303 47.6021C24.303 43.4985 24.7166 39.4434 25.5437 35.4365C26.199 32.2891 27.1067 30.1836 28.2669 29.1201C29.3626 28.1318 30.8074 27.6377 32.6013 27.6377C34.406 27.6377 35.7703 28.1802 36.6941 29.2651C37.6287 30.3501 38.096 31.6875 38.096 33.2773C38.096 34.8564 37.9939 36.7739 37.7898 39.0298C37.5857 41.2749 37.3333 43.1548 37.0325 44.6694C36.7317 46.1733 36.4739 47.2744 36.2591 47.9727C36.055 48.6602 35.7703 49.3584 35.4051 50.0674C35.0398 50.7764 34.6155 51.3457 34.1321 51.7754C33.0471 52.7529 31.597 53.2417 29.7815 53.2417ZM30.2005 49.439C31.5647 49.439 32.4402 48.1821 32.8269 45.6685C33.0847 44.0034 33.3426 41.9302 33.6004 39.4487C33.8582 36.9673 33.9871 35.2217 33.9871 34.2119C33.9871 33.2021 33.8206 32.4878 33.4876 32.0688C33.1653 31.6499 32.7034 31.4404 32.1018 31.4404C30.8557 31.4404 30.0125 32.7026 29.5721 35.2271C29.3142 36.7095 29.0564 38.7236 28.7986 41.2695C28.5408 43.8047 28.4119 45.5933 28.4119 46.6353C28.4119 47.6772 28.5784 48.4077 28.9114 48.8267C29.2552 49.2349 29.6848 49.439 30.2005 49.439ZM44.9467 28.2822L43.0937 44.7983C42.9433 46.0659 42.8681 46.9683 42.8681 47.5054C42.8681 48.0425 43.0185 48.499 43.3193 48.875C43.62 49.251 44.1088 49.439 44.7856 49.439C45.4623 49.439 45.9779 49.1006 46.3324 48.4238C46.6869 47.7471 46.9501 46.6621 47.122 45.1689L49.0072 28.3789C49.0395 28.1426 49.1845 28.019 49.4423 28.0083L52.6972 27.8794C52.9657 27.8901 53.1 28.019 53.1 28.2661L51.247 44.7983C50.871 48.1821 50.0009 50.4971 48.6366 51.7432C47.5302 52.7422 46.0854 53.2417 44.3022 53.2417C42.5297 53.2417 41.1708 52.7798 40.2255 51.856C39.2909 50.9214 38.8237 49.5464 38.8237 47.731C38.8237 46.8608 38.8774 45.9531 38.9848 45.0078L40.8862 28.3789C40.9076 28.2393 40.9399 28.1479 40.9828 28.105C41.0365 28.0513 41.1386 28.019 41.289 28.0083L44.5439 27.8955C44.8124 27.9062 44.9467 28.0352 44.9467 28.2822ZM55.3907 28.3789C55.4122 28.25 55.4498 28.1587 55.5035 28.105C55.5572 28.0513 56.0997 27.9761 57.1309 27.8794C58.1622 27.7827 59.5748 27.7344 61.3687 27.7344C63.1734 27.7344 64.5591 28.2554 65.5259 29.2974C66.4927 30.3286 66.9761 31.7466 66.9761 33.5513C66.9761 36.9565 66.5948 40.8774 65.8321 45.314C65.4239 47.6665 64.7632 49.4175 63.8502 50.5669C63.0123 51.6196 61.7017 52.3125 59.9185 52.6455C59.1129 52.7852 58.1299 52.8765 56.9698 52.9194L52.9576 53.0645C52.7212 53.0537 52.6031 52.9517 52.6031 52.7583L55.3907 28.3789ZM59.0806 31.4888L57.1148 49.0361C58.7154 48.8965 59.8218 48.585 60.4341 48.1016C61.0572 47.6182 61.4922 46.6997 61.7393 45.3462C61.9864 43.9927 62.2281 42.145 62.4644 39.8032C62.7115 37.4614 62.835 35.5439 62.835 34.0508C62.835 33.1699 62.6202 32.5146 62.1905 32.085C61.7608 31.6553 61.1754 31.4404 60.4341 31.4404C59.7037 31.4404 59.2525 31.4565 59.0806 31.4888Z" fill="url(#paint0_linear_81_82)"/>
<path d="M11.0527 14.9785L11.0913 15.9778L11.1173 15.9768L11.1433 15.9744L11.0527 14.9785ZM6.0415 15.1719L6.00295 14.1726L5.14571 14.2057L5.04801 15.058L6.0415 15.1719ZM5.28418 21.7783L4.29069 21.6644L4.15855 22.8171L5.3181 22.7777L5.28418 21.7783ZM11.4556 21.5688L11.494 20.5696L11.4578 20.5682L11.4216 20.5694L11.4556 21.5688ZM11.8745 21.9878L12.8667 22.1124L12.8745 22.0503V21.9878H11.8745ZM11.4556 25.3232L10.4634 25.1986L10.4615 25.2135L10.4601 25.2284L11.4556 25.3232ZM11.0366 25.7422L11.0691 26.7417L11.1557 26.7388L11.2406 26.7212L11.0366 25.7422ZM1.12695 26.0645V27.0645H1.14321L1.15946 27.0639L1.12695 26.0645ZM0.772461 25.7583L-0.221065 25.6447L-0.227539 25.7013V25.7583H0.772461ZM3.56006 1.37891L2.57772 1.19179L2.57076 1.22834L2.56653 1.2653L3.56006 1.37891ZM3.979 1.0083L3.94435 0.00890124L3.91636 0.00987184L3.88847 0.0124075L3.979 1.0083ZM12.8091 0.702148L12.9282 -0.290728L12.8516 -0.299926L12.7744 -0.297251L12.8091 0.702148ZM13.2119 1.13721L14.2047 1.25711L14.2119 1.19737V1.13721H13.2119ZM12.8091 4.47266L11.8163 4.35275L11.8162 4.35351L12.8091 4.47266ZM12.3901 4.90771L12.4181 5.90732L12.4475 5.9065L12.4768 5.90396L12.3901 4.90771ZM7.20166 5.05273L7.17372 4.05312L6.30775 4.07733L6.20827 4.93791L7.20166 5.05273ZM6.50879 11.0469L5.5154 10.932L5.38181 12.0878L6.54448 12.0462L6.50879 11.0469ZM11.4717 10.8696L11.5101 9.87037L11.4731 9.86894L11.436 9.87027L11.4717 10.8696ZM11.8906 11.2886L12.8826 11.415L12.8906 11.352V11.2886H11.8906ZM11.4717 14.5757L12.4569 14.747L12.4608 14.7246L12.4637 14.7021L11.4717 14.5757ZM11.0142 13.9793L6.00295 14.1726L6.08006 16.1711L11.0913 15.9778L11.0142 13.9793ZM5.04801 15.058L4.29069 21.6644L6.27767 21.8922L7.035 15.2858L5.04801 15.058ZM5.3181 22.7777L11.4895 22.5683L11.4216 20.5694L5.25026 20.7789L5.3181 22.7777ZM11.4171 22.5681C11.4095 22.5678 11.2332 22.5593 11.0627 22.3887C10.8855 22.2116 10.8745 22.0208 10.8745 21.9878H12.8745C12.8745 21.6862 12.7937 21.2913 12.4769 20.9745C12.1667 20.6644 11.7809 20.5806 11.494 20.5696L11.4171 22.5681ZM10.8823 21.8632L10.4634 25.1986L12.4478 25.4479L12.8667 22.1124L10.8823 21.8632ZM10.4601 25.2284C10.4679 25.1458 10.5092 25.0085 10.6276 24.8901C10.68 24.8376 10.7319 24.8053 10.7704 24.7866C10.8075 24.7685 10.8312 24.7635 10.8327 24.7632L11.2406 26.7212C11.4979 26.6676 11.7954 26.5507 12.0418 26.3043C12.2999 26.0462 12.4217 25.7263 12.4511 25.4181L10.4601 25.2284ZM11.0041 24.7427L1.09445 25.065L1.15946 27.0639L11.0691 26.7417L11.0041 24.7427ZM1.12695 25.0645C1.12994 25.0645 1.31886 25.062 1.5147 25.2311C1.73859 25.4244 1.77246 25.6649 1.77246 25.7583H-0.227539C-0.227539 26.0558 -0.134586 26.4493 0.207464 26.7447C0.521472 27.0159 0.88764 27.0645 1.12695 27.0645V25.0645ZM1.76599 25.8719L4.55359 1.49251L2.56653 1.2653L-0.221065 25.6447L1.76599 25.8719ZM4.5424 1.56602C4.53227 1.61916 4.49109 1.74974 4.3596 1.86606C4.23106 1.97977 4.10525 2.00095 4.06954 2.00419L3.88847 0.0124075C3.61643 0.0371383 3.30263 0.130828 3.03445 0.368069C2.7633 0.607927 2.63081 0.913062 2.57772 1.19179L4.5424 1.56602ZM4.01365 2.0077L12.8437 1.70155L12.7744 -0.297251L3.94435 0.00890124L4.01365 2.0077ZM12.6899 1.69503C12.6754 1.69328 12.5223 1.67096 12.3774 1.51449C12.2264 1.35141 12.2119 1.18129 12.2119 1.13721H14.2119C14.2119 0.835312 14.1302 0.463777 13.845 0.155675C13.5658 -0.145815 13.2113 -0.256761 12.9282 -0.290728L12.6899 1.69503ZM12.2191 1.01731L11.8163 4.35275L13.8019 4.59256L14.2047 1.25711L12.2191 1.01731ZM11.8162 4.35351C11.8172 4.3453 11.8344 4.21952 11.9599 4.0892C12.0942 3.9497 12.2443 3.91663 12.3035 3.91147L12.4768 5.90396C12.7831 5.87732 13.1265 5.761 13.4005 5.47648C13.6656 5.20114 13.7687 4.86856 13.802 4.5918L11.8162 4.35351ZM12.3622 3.90811L7.17372 4.05312L7.2296 6.05234L12.4181 5.90732L12.3622 3.90811ZM6.20827 4.93791L5.5154 10.932L7.50217 11.1617L8.19505 5.16756L6.20827 4.93791ZM6.54448 12.0462L11.5074 11.869L11.436 9.87027L6.4731 10.0475L6.54448 12.0462ZM11.4332 11.8689C11.4256 11.8686 11.2493 11.8601 11.0788 11.6895C10.9016 11.5124 10.8906 11.3216 10.8906 11.2886H12.8906C12.8906 10.987 12.8098 10.5921 12.493 10.2753C12.1828 9.96513 11.797 9.8814 11.5101 9.87037L11.4332 11.8689ZM10.8986 11.1621L10.4797 14.4493L12.4637 14.7021L12.8826 11.415L10.8986 11.1621ZM10.4865 14.4043C10.4907 14.3801 10.5184 14.2594 10.6416 14.1409C10.7699 14.0175 10.9065 13.9877 10.9622 13.9826L11.1433 15.9744C11.4353 15.9479 11.7599 15.8401 12.0278 15.5825C12.2907 15.3297 12.4097 15.0184 12.4569 14.747L10.4865 14.4043ZM19.547 1.28223L20.5407 1.39403L20.547 1.3383V1.28223H19.547ZM17.2428 21.7622L16.2491 21.6504L16.119 22.807L17.2819 22.7614L17.2428 21.7622ZM23.4142 21.5205L23.4526 20.5212L23.4138 20.5198L23.3751 20.5213L23.4142 21.5205ZM23.8331 21.9395L24.8253 22.0641L24.8331 22.002V21.9395H23.8331ZM23.4142 25.2749L22.4219 25.1503L22.4208 25.1603L23.4142 25.2749ZM22.9953 25.71L23.0309 26.7094L23.0387 26.709L22.9953 25.71ZM13.0695 26.0645V27.0645H13.0873L13.1052 27.0638L13.0695 26.0645ZM12.7311 25.7583L11.7374 25.646L11.7311 25.702V25.7583H12.7311ZM15.4865 1.37891L14.5001 1.21451L14.4957 1.24046L14.4928 1.2666L15.4865 1.37891ZM15.5831 1.10498L14.876 0.397874L14.8369 0.437037L14.8023 0.480285L15.5831 1.10498ZM15.8893 1.0083L15.8545 0.0089066L15.8363 0.00954187L15.8181 0.0108421L15.8893 1.0083ZM19.1281 0.895508L19.1665 -0.103753L19.1299 -0.105162L19.0933 -0.103886L19.1281 0.895508ZM18.5533 1.17042L16.2491 21.6504L18.2365 21.874L20.5407 1.39403L18.5533 1.17042ZM17.2819 22.7614L23.4533 22.5197L23.3751 20.5213L17.2037 20.763L17.2819 22.7614ZM23.3758 22.5198C23.3681 22.5195 23.1918 22.5109 23.0213 22.3404C22.8442 22.1633 22.8331 21.9725 22.8331 21.9395H24.8331C24.8331 21.6379 24.7523 21.243 24.4355 20.9262C24.1253 20.616 23.7396 20.5323 23.4526 20.5212L23.3758 22.5198ZM22.8409 21.8148L22.422 25.1503L24.4064 25.3995L24.8253 22.0641L22.8409 21.8148ZM22.4208 25.1603C22.4208 25.1601 22.424 25.1307 22.443 25.0838C22.4629 25.0346 22.5001 24.9669 22.565 24.8995C22.7119 24.7469 22.8806 24.714 22.9518 24.7109L23.0387 26.709C23.3569 26.6952 23.719 26.5844 24.0056 26.2868C24.2774 26.0045 24.3761 25.6624 24.4076 25.3895L22.4208 25.1603ZM22.9596 24.7106L13.0338 25.0651L13.1052 27.0638L23.0309 26.7093L22.9596 24.7106ZM13.0695 25.0645C13.0875 25.0645 13.2876 25.0664 13.4866 25.2464C13.7046 25.4436 13.7311 25.679 13.7311 25.7583H11.7311C11.7311 26.0418 11.814 26.4302 12.1448 26.7295C12.4565 27.0115 12.8259 27.0645 13.0695 27.0645V25.0645ZM13.7248 25.8706L16.4801 1.49121L14.4928 1.2666L11.7374 25.646L13.7248 25.8706ZM16.4729 1.54331C16.4771 1.51772 16.4783 1.52227 16.4697 1.54657C16.4625 1.56696 16.4347 1.64131 16.364 1.72968L14.8023 0.480285C14.594 0.740612 14.5286 1.04359 14.5001 1.21451L16.4729 1.54331ZM16.2903 1.81209C16.1667 1.93563 16.0444 1.98045 16.0011 1.99411C15.9541 2.00897 15.9344 2.00763 15.9605 2.00576L15.8181 0.0108421C15.6296 0.0243031 15.2026 0.0713108 14.876 0.397874L16.2903 1.81209ZM15.9241 2.00769L19.1629 1.8949L19.0933 -0.103886L15.8545 0.0089066L15.9241 2.00769ZM19.0896 1.89477C19.0888 1.89474 19.0526 1.89357 18.9951 1.8744C18.9346 1.85424 18.8488 1.8133 18.764 1.73505C18.5717 1.55757 18.547 1.34938 18.547 1.28223H20.547C20.547 0.967999 20.4525 0.571827 20.1206 0.265441C19.8095 -0.0217063 19.4351 -0.0934243 19.1665 -0.103753L19.0896 1.89477ZM26.2044 24.6304L25.4462 25.2824L26.2044 24.6304ZM26.0594 8.43652L25.0803 8.2327L25.08 8.23435L26.0594 8.43652ZM28.7825 2.12012L28.1127 1.37752L28.1068 1.38296L28.7825 2.12012ZM37.2097 2.26514L36.4484 2.91345L36.4521 2.91778L37.2097 2.26514ZM38.3055 12.0298L39.3013 12.1203L39.3014 12.1199L38.3055 12.0298ZM37.5481 17.6694L38.5287 17.8656L38.529 17.8642L37.5481 17.6694ZM36.7747 20.9727L35.8189 20.6786L35.816 20.6881L36.7747 20.9727ZM34.6477 24.7754L33.9834 24.028L33.9784 24.0325L34.6477 24.7754ZM33.3426 18.6685L32.3543 18.5154L32.3542 18.5164L33.3426 18.6685ZM34.0032 5.06885L33.2106 5.67856L33.2154 5.68486L33.2204 5.69109L34.0032 5.06885ZM30.0877 8.22705L29.1026 8.05518L29.1025 8.05571L30.0877 8.22705ZM29.3142 14.2695L30.3091 14.3707L30.3091 14.3703L29.3142 14.2695ZM29.427 21.8267L28.6442 22.4489L28.653 22.46L28.6621 22.4708L29.427 21.8267ZM30.2971 25.2417C28.698 25.2417 27.6468 24.774 26.9626 23.9783L25.4462 25.2824C26.6096 26.6352 28.2869 27.2417 30.2971 27.2417V25.2417ZM26.9626 23.9783C26.2161 23.1104 25.8186 22.0091 25.8186 20.6021H23.8186C23.8186 22.4177 24.345 24.0019 25.4462 25.2824L26.9626 23.9783ZM25.8186 20.6021C25.8186 16.5662 26.2253 12.5788 27.0387 8.63869L25.08 8.23435C24.2391 12.3079 23.8186 16.4308 23.8186 20.6021H25.8186ZM27.0384 8.64034C27.6876 5.52176 28.5466 3.69297 29.4582 2.85727L28.1068 1.38296C26.6981 2.67422 25.7416 5.05637 25.0803 8.2327L27.0384 8.64034ZM29.4523 2.86269C30.3265 2.07416 31.5144 1.6377 33.117 1.6377V-0.362305C31.1316 -0.362305 29.4299 0.189513 28.1127 1.37755L29.4523 2.86269ZM33.117 1.6377C34.7129 1.6377 35.7631 2.10869 36.4484 2.91344L37.9711 1.61683C36.8087 0.25166 35.1304 -0.362305 33.117 -0.362305V1.6377ZM36.4521 2.91778C37.2128 3.80089 37.6116 4.89875 37.6116 6.27734H39.6116C39.6116 4.47625 39.0759 2.89931 37.9674 1.61249L36.4521 2.91778ZM37.6116 6.27734C37.6116 7.81657 37.512 9.70211 37.3095 11.9397L39.3014 12.1199C39.5071 9.84574 39.6116 7.89632 39.6116 6.27734H37.6116ZM37.3096 11.9392C37.1073 14.1637 36.8589 16.0062 36.5673 17.4747L38.529 17.8642C38.8389 16.3034 39.0954 14.3861 39.3013 12.1203L37.3096 11.9392ZM36.5675 17.4733C36.2678 18.9718 36.018 20.0314 35.8189 20.6786L37.7305 21.2667C37.961 20.5174 38.2268 19.3749 38.5287 17.8656L36.5675 17.4733ZM35.816 20.6881C35.6315 21.3095 35.3715 21.9498 35.0317 22.6094L36.8097 23.5253C37.2003 22.767 37.5096 22.0108 37.7333 21.2573L35.816 20.6881ZM35.0317 22.6094C34.7102 23.2336 34.356 23.6967 33.9834 24.028L35.3121 25.5228C35.9062 24.9947 36.4007 24.3191 36.8097 23.5253L35.0317 22.6094ZM33.9784 24.0325C33.1188 24.8069 31.928 25.2417 30.2971 25.2417V27.2417C32.2972 27.2417 34.0067 26.699 35.3171 25.5183L33.9784 24.0325ZM30.7161 23.439C31.7694 23.439 32.6184 22.9264 33.2164 22.0679C33.7808 21.2577 34.1278 20.1408 34.3309 18.8205L32.3542 18.5164C32.1706 19.7098 31.8865 20.4781 31.5754 20.9248C31.2979 21.3231 31.027 21.439 30.7161 21.439V23.439ZM34.3308 18.8215C34.592 17.1342 34.8518 15.0431 35.1106 12.5521L33.1213 12.3454C32.8645 14.8173 32.6087 16.8727 32.3543 18.5154L34.3308 18.8215ZM35.1106 12.5521C35.3684 10.0716 35.5027 8.27929 35.5027 7.21191H33.5027C33.5027 8.16407 33.3793 9.86296 33.1213 12.3454L35.1106 12.5521ZM35.5027 7.21191C35.5027 6.14976 35.339 5.14227 34.786 4.4466L33.2204 5.69109C33.3334 5.83332 33.5027 6.25454 33.5027 7.21191H35.5027ZM34.7958 4.45914C34.2564 3.75786 33.4807 3.44043 32.6175 3.44043V5.44043C32.9573 5.44043 33.1055 5.54194 33.2106 5.67856L34.7958 4.45914ZM32.6175 3.44043C31.5849 3.44043 30.7798 3.99199 30.2189 4.83157C29.6843 5.63181 29.3324 6.73753 29.1026 8.05518L31.0728 8.39892C31.2833 7.19216 31.5733 6.40457 31.882 5.9426C32.1643 5.51997 32.4039 5.44043 32.6175 5.44043V3.44043ZM29.1025 8.05571C28.8387 9.57212 28.5781 11.6131 28.3193 14.1688L30.3091 14.3703C30.566 11.8342 30.821 9.84683 31.0729 8.39839L29.1025 8.05571ZM28.3194 14.1684C28.0616 16.7029 27.9275 18.537 27.9275 19.6353H29.9275C29.9275 18.6495 30.0512 16.9064 30.3091 14.3707L28.3194 14.1684ZM27.9275 19.6353C27.9275 20.7206 28.0883 21.7496 28.6442 22.4489L30.2099 21.2044C30.0997 21.0659 29.9275 20.6339 29.9275 19.6353H27.9275ZM28.6621 22.4708C29.1882 23.0956 29.8938 23.439 30.7161 23.439V21.439C30.5071 21.439 30.3533 21.3742 30.1919 21.1825L28.6621 22.4708ZM47.9277 1.28223L48.9214 1.39375L48.9277 1.33816V1.28223H47.9277ZM45.9457 18.9424L44.952 18.8309L44.9516 18.8337L45.9457 18.9424ZM43.2065 24.6787L42.6307 23.8611L42.6305 23.8612L43.2065 24.6787ZM36.8417 25.7905L35.8492 25.6684L35.8417 25.7292V25.7905H36.8417ZM37.2284 22.6484L36.2495 22.4445L36.241 22.4851L36.2359 22.5263L37.2284 22.6484ZM41.3534 20.9243L40.4979 20.4065L40.4923 20.4159L41.3534 20.9243ZM41.8368 19.2969L40.8432 19.1843L40.8429 19.1864L41.8368 19.2969ZM43.8671 1.37891L42.8807 1.21451L42.8764 1.24032L42.8735 1.26632L43.8671 1.37891ZM43.9638 1.10498L43.2567 0.397874L43.2175 0.437037L43.1829 0.480285L43.9638 1.10498ZM44.2699 1.0083L44.2351 0.0089066L44.2169 0.00954187L44.1987 0.0108421L44.2699 1.0083ZM47.5087 0.895508L47.5854 -0.101547L47.5297 -0.10583L47.4739 -0.103886L47.5087 0.895508ZM46.9339 1.1707L44.952 18.8309L46.9395 19.0539L48.9214 1.39375L46.9339 1.1707ZM44.9516 18.8337C44.6668 21.4378 43.8269 23.0187 42.6307 23.8611L43.7822 25.4963C45.6368 24.1903 46.6231 21.9469 46.9398 19.0511L44.9516 18.8337ZM42.6305 23.8612C41.4438 24.6973 39.6878 25.1772 37.2445 25.1772V27.1772C39.9145 27.1772 42.1332 26.6581 43.7824 25.4962L42.6305 23.8612ZM37.2445 25.1772C37.2544 25.1772 37.4473 25.179 37.635 25.3592C37.8302 25.5466 37.8417 25.7547 37.8417 25.7905H35.8417C35.8417 26.0842 35.9203 26.4856 36.2499 26.802C36.5718 27.111 36.9661 27.1772 37.2445 27.1772V25.1772ZM37.8342 25.9127L38.2209 22.7706L36.2359 22.5263L35.8492 25.6684L37.8342 25.9127ZM38.2074 22.8524C38.2074 22.8525 38.2062 22.8584 38.2027 22.8689C38.1993 22.8795 38.1932 22.8958 38.1832 22.9164C38.1629 22.9581 38.1257 23.0186 38.062 23.0798C37.9141 23.2217 37.7391 23.2617 37.6313 23.2617V21.2617C37.3085 21.2617 36.959 21.3661 36.6769 21.637C36.4154 21.888 36.301 22.1969 36.2495 22.4445L38.2074 22.8524ZM37.6313 23.2617C39.6341 23.2617 41.394 22.8227 42.2146 21.4327L40.4923 20.4159C40.2602 20.8091 39.5386 21.2617 37.6313 21.2617V23.2617ZM42.2089 21.4421C42.5561 20.8685 42.7458 20.1711 42.8307 19.4073L40.8429 19.1864C40.7774 19.7762 40.6449 20.1637 40.4979 20.4065L42.2089 21.4421ZM42.8305 19.4095L44.8607 1.4915L42.8735 1.26632L40.8432 19.1843L42.8305 19.4095ZM44.8535 1.54331C44.8578 1.51772 44.859 1.52227 44.8504 1.54657C44.8432 1.56696 44.8153 1.64131 44.7447 1.72968L43.1829 0.480285C42.9747 0.740612 42.9092 1.04359 42.8807 1.21451L44.8535 1.54331ZM44.6709 1.81209C44.5474 1.93563 44.425 1.98045 44.3817 1.99411C44.3347 2.00897 44.315 2.00763 44.3412 2.00576L44.1987 0.0108421C44.0102 0.0243031 43.5832 0.0713108 43.2567 0.397874L44.6709 1.81209ZM44.3047 2.00769L47.5435 1.8949L47.4739 -0.103886L44.2351 0.0089066L44.3047 2.00769ZM47.432 1.89256C47.432 1.89256 47.4316 1.89253 47.4308 1.89245C47.43 1.89237 47.4289 1.89223 47.4273 1.89202C47.4241 1.89161 47.4193 1.89086 47.4129 1.88959C47.4002 1.88709 47.38 1.88224 47.3541 1.87296C47.3016 1.85411 47.2236 1.81598 47.1446 1.7431C46.9614 1.57393 46.9277 1.37032 46.9277 1.28223H48.9277C48.9277 0.957805 48.8241 0.571579 48.5012 0.273497C48.2038 -0.0010438 47.847 -0.081425 47.5854 -0.101547L47.432 1.89256ZM49.1226 24.6304L48.3644 25.2824L49.1226 24.6304ZM48.9776 8.43652L47.9986 8.2327L47.9982 8.23435L48.9776 8.43652ZM51.7007 2.12012L51.0309 1.37752L51.025 1.38296L51.7007 2.12012ZM60.128 2.26514L59.3666 2.91345L59.3703 2.91778L60.128 2.26514ZM61.2237 12.0298L62.2196 12.1203L62.2196 12.1199L61.2237 12.0298ZM60.4664 17.6694L61.4469 17.8656L61.4472 17.8642L60.4664 17.6694ZM59.6929 20.9727L58.7371 20.6786L58.7343 20.6881L59.6929 20.9727ZM57.566 24.7754L56.9016 24.028L56.8966 24.0325L57.566 24.7754ZM56.2608 18.6685L55.2726 18.5154L55.2724 18.5164L56.2608 18.6685ZM56.9214 5.06885L56.1288 5.67856L56.1337 5.68486L56.1386 5.69109L56.9214 5.06885ZM53.0059 8.22705L52.0208 8.05518L52.0207 8.05571L53.0059 8.22705ZM52.2325 14.2695L53.2273 14.3707L53.2274 14.3703L52.2325 14.2695ZM52.3453 21.8267L51.5625 22.4489L51.5713 22.46L51.5804 22.4708L52.3453 21.8267ZM53.2154 25.2417C51.6162 25.2417 50.5651 24.774 49.8808 23.9783L48.3644 25.2824C49.5278 26.6352 51.2052 27.2417 53.2154 27.2417V25.2417ZM49.8808 23.9783C49.1344 23.1104 48.7369 22.0091 48.7369 20.6021H46.7369C46.7369 22.4177 47.2632 24.0019 48.3644 25.2824L49.8808 23.9783ZM48.7369 20.6021C48.7369 16.5662 49.1436 12.5788 49.9569 8.63869L47.9982 8.23435C47.1573 12.3079 46.7369 16.4308 46.7369 20.6021H48.7369ZM49.9566 8.64034C50.6059 5.52176 51.4648 3.69297 52.3765 2.85727L51.025 1.38296C49.6164 2.67422 48.6599 5.05637 47.9986 8.2327L49.9566 8.64034ZM52.3705 2.86269C53.2447 2.07416 54.4327 1.6377 56.0352 1.6377V-0.362305C54.0499 -0.362305 52.3481 0.189513 51.031 1.37755L52.3705 2.86269ZM56.0352 1.6377C57.6312 1.6377 58.6814 2.10869 59.3666 2.91344L60.8894 1.61683C59.7269 0.25166 58.0486 -0.362305 56.0352 -0.362305V1.6377ZM59.3703 2.91778C60.131 3.80089 60.5298 4.89875 60.5298 6.27734H62.5298C62.5298 4.47625 61.9941 2.89931 60.8857 1.61249L59.3703 2.91778ZM60.5298 6.27734C60.5298 7.81657 60.4302 9.70211 60.2278 11.9397L62.2196 12.1199C62.4254 9.84574 62.5298 7.89632 62.5298 6.27734H60.5298ZM60.2278 11.9392C60.0256 14.1637 59.7771 16.0062 59.4855 17.4747L61.4472 17.8642C61.7572 16.3034 62.0136 14.3861 62.2196 12.1203L60.2278 11.9392ZM59.4858 17.4733C59.1861 18.9718 58.9363 20.0314 58.7371 20.6786L60.6487 21.2667C60.8793 20.5174 61.1451 19.3749 61.4469 17.8656L59.4858 17.4733ZM58.7343 20.6881C58.5498 21.3095 58.2897 21.9498 57.95 22.6094L59.7279 23.5253C60.1186 22.767 60.4279 22.0108 60.6516 21.2573L58.7343 20.6881ZM57.95 22.6094C57.6284 23.2336 57.2743 23.6967 56.9016 24.028L58.2303 25.5228C58.8245 24.9947 59.319 24.3191 59.7279 23.5253L57.95 22.6094ZM56.8966 24.0325C56.0371 24.8069 54.8462 25.2417 53.2154 25.2417V27.2417C55.2154 27.2417 56.925 26.699 58.2353 25.5183L56.8966 24.0325ZM53.6343 23.439C54.6877 23.439 55.5367 22.9264 56.1347 22.0679C56.699 21.2577 57.0461 20.1408 57.2492 18.8205L55.2724 18.5164C55.0888 19.7098 54.8047 20.4781 54.4936 20.9248C54.2161 21.3231 53.9453 21.439 53.6343 21.439V23.439ZM57.249 18.8215C57.5103 17.1342 57.7701 15.0431 58.0289 12.5521L56.0396 12.3454C55.7828 14.8173 55.5269 16.8727 55.2726 18.5154L57.249 18.8215ZM58.0289 12.5521C58.2866 10.0716 58.421 8.27929 58.421 7.21191H56.421C56.421 8.16407 56.2975 9.86296 56.0396 12.3454L58.0289 12.5521ZM58.421 7.21191C58.421 6.14976 58.2572 5.14227 57.7043 4.4466L56.1386 5.69109C56.2517 5.83332 56.421 6.25454 56.421 7.21191H58.421ZM57.7141 4.45914C57.1746 3.75786 56.399 3.44043 55.5357 3.44043V5.44043C55.8756 5.44043 56.0237 5.54194 56.1288 5.67856L57.7141 4.45914ZM55.5357 3.44043C54.5032 3.44043 53.6981 3.99199 53.1372 4.83157C52.6026 5.63181 52.2507 6.73753 52.0208 8.05518L53.991 8.39892C54.2016 7.19216 54.4916 6.40457 54.8002 5.9426C55.0825 5.51997 55.3221 5.44043 55.5357 5.44043V3.44043ZM52.0207 8.05571C51.757 9.57212 51.4964 11.6131 51.2376 14.1688L53.2274 14.3703C53.4842 11.8342 53.7392 9.84683 53.9911 8.39839L52.0207 8.05571ZM51.2376 14.1684C50.9799 16.7029 50.8458 18.537 50.8458 19.6353H52.8458C52.8458 18.6495 52.9695 16.9064 53.2273 14.3707L51.2376 14.1684ZM50.8458 19.6353C50.8458 20.7206 51.0066 21.7496 51.5625 22.4489L53.1281 21.2044C53.018 21.0659 52.8458 20.6339 52.8458 19.6353H50.8458ZM51.5804 22.4708C52.1065 23.0956 52.8121 23.439 53.6343 23.439V21.439C53.4253 21.439 53.2716 21.3742 53.1102 21.1825L51.5804 22.4708ZM71.9255 12.5776L71.4845 11.6801L69.5195 12.6455L71.5359 13.4986L71.9255 12.5776ZM73.8913 14.2212L73.0481 14.7589L73.0517 14.7644L73.8913 14.2212ZM74.0847 20.312L73.1359 19.9958L73.133 20.0047L74.0847 20.312ZM72.5217 23.1157L71.7583 22.4698L71.7572 22.471L72.5217 23.1157ZM65.3513 25.9517L65.3838 26.9511L65.384 26.9511L65.3513 25.9517ZM61.8869 26.0645L61.7964 27.0603L61.8578 27.0659L61.9195 27.0639L61.8869 26.0645ZM61.5324 25.7583L60.5389 25.6448L60.5324 25.7013V25.7583H61.5324ZM64.3039 1.50781L65.2974 1.62136L65.2978 1.61824L64.3039 1.50781ZM64.4489 1.12109L65.0997 1.88035L65.1289 1.85536L65.156 1.8282L64.4489 1.12109ZM66.4631 0.879395L66.5307 1.87714L66.5391 1.8765L66.4631 0.879395ZM74.3103 2.13623L73.5825 2.82213L73.5865 2.82631L74.3103 2.13623ZM66.9143 14.189L66.8376 13.1919L66.0116 13.2554L65.9203 14.0788L66.9143 14.189ZM66.0441 22.0361L65.0502 21.9259L64.9271 23.0361H66.0441V22.0361ZM69.5246 20.5698L68.7487 19.9389L68.7446 19.9441L69.5246 20.5698ZM67.1882 11.627L66.1943 11.5168L66.0703 12.6348L67.1952 12.6269L67.1882 11.627ZM68.01 4.21484L67.8953 3.22143L67.1038 3.31276L67.0161 4.10465L68.01 4.21484ZM74.6315 5.95508C74.6315 7.42922 74.3472 8.60328 73.8324 9.52325C73.3225 10.4343 72.5546 11.1544 71.4845 11.6801L72.3664 13.4752C73.767 12.7871 74.8522 11.7964 75.5777 10.4999C76.2982 9.21239 76.6315 7.68211 76.6315 5.95508H74.6315ZM71.5359 13.4986C72.1942 13.7771 72.6883 14.1946 73.0481 14.7589L74.7345 13.6835C74.149 12.7653 73.3326 12.0871 72.3151 11.6567L71.5359 13.4986ZM73.0517 14.7644C73.391 15.2887 73.6003 16.0237 73.6003 17.041H75.6003C75.6003 15.7595 75.337 14.6146 74.7309 13.6779L73.0517 14.7644ZM73.6003 17.041C73.6003 18.0891 73.4438 19.0722 73.136 19.9958L75.0333 20.6282C75.413 19.4893 75.6003 18.2917 75.6003 17.041H73.6003ZM73.133 20.0047C72.8406 20.9103 72.3842 21.7301 71.7583 22.4698L73.2851 23.7617C74.0772 22.8256 74.6627 21.7763 75.0363 20.6193L73.133 20.0047ZM71.7572 22.471C70.5004 23.9613 68.43 24.8502 65.3185 24.9522L65.384 26.9511C68.8253 26.8383 71.5351 25.8366 73.2861 23.7604L71.7572 22.471ZM65.3187 24.9522L61.8544 25.065L61.9195 27.0639L65.3838 26.9511L65.3187 24.9522ZM61.9774 25.0686C61.9794 25.0687 62.011 25.0715 62.0609 25.0889C62.1121 25.1068 62.1916 25.1433 62.2747 25.215C62.3614 25.2898 62.4324 25.3866 62.4782 25.4968C62.5223 25.603 62.5324 25.6963 62.5324 25.7583H60.5324C60.5324 26.0857 60.6503 26.4547 60.9674 26.7286C61.2475 26.9705 61.5719 27.0399 61.7964 27.0603L61.9774 25.0686ZM62.526 25.8718L65.2974 1.62136L63.3104 1.39427L60.5389 25.6448L62.526 25.8718ZM65.2978 1.61824C65.3028 1.57293 65.3067 1.5796 65.2926 1.61724C65.2795 1.65227 65.2305 1.76829 65.0997 1.88035L63.7981 0.361837C63.4144 0.690769 63.3361 1.1628 63.31 1.39738L65.2978 1.61824ZM65.156 1.8282C65.0557 1.92854 64.959 1.98019 64.922 1.99895C64.8766 2.02194 64.8418 2.03434 64.8281 2.03904C64.8011 2.04823 64.7939 2.04834 64.8213 2.04261C64.873 2.03184 64.9705 2.01604 65.128 1.99715C65.4377 1.95998 65.902 1.91973 66.5307 1.8771L66.3954 -0.118315C65.7566 -0.0750012 65.2514 -0.032006 64.8897 0.0113956C64.7115 0.0327835 64.5479 0.056603 64.4129 0.0847684C64.347 0.0985066 64.2651 0.11792 64.1821 0.146252C64.1451 0.158871 63.9283 0.227496 63.7418 0.413987L65.156 1.8282ZM66.5391 1.8765C67.784 1.78155 68.967 1.73438 70.0886 1.73438V-0.265625C68.9113 -0.265625 67.6773 -0.21612 66.387 -0.117709L66.5391 1.8765ZM70.0886 1.73438C71.8854 1.73438 72.9684 2.17048 73.5825 2.82212L75.038 1.45034C73.8904 0.232836 72.1589 -0.265625 70.0886 -0.265625V1.73438ZM73.5865 2.82631C74.2456 3.51754 74.6315 4.51743 74.6315 5.95508H76.6315C76.6315 4.14859 76.1366 2.60257 75.034 1.44616L73.5865 2.82631ZM67.7844 13.1729C67.3517 13.1729 67.0223 13.1777 66.8376 13.1919L66.991 15.186C67.0855 15.1787 67.3362 15.1729 67.7844 15.1729V13.1729ZM65.9203 14.0788L65.0502 21.9259L67.038 22.1463L67.9082 14.2992L65.9203 14.0788ZM66.0441 23.0361C67.8081 23.0361 69.288 22.4629 70.3046 21.1956L68.7446 19.9441C68.1929 20.6318 67.3525 21.0361 66.0441 21.0361V23.0361ZM70.3005 21.2007C71.2749 20.0024 71.717 18.4769 71.717 16.7188H69.717C69.717 18.1403 69.3641 19.1822 68.7488 19.9389L70.3005 21.2007ZM71.717 16.7188C71.717 15.7101 71.3583 14.8221 70.6193 14.1447L69.2678 15.619C69.5601 15.8869 69.717 16.2235 69.717 16.7188H71.717ZM70.6193 14.1447C69.8665 13.4547 68.8763 13.1729 67.7844 13.1729V15.1729C68.5401 15.1729 68.9893 15.3637 69.2678 15.619L70.6193 14.1447ZM67.1952 12.6269C68.9047 12.615 70.3643 12.1525 71.3837 11.0727C72.3943 10.0023 72.8127 8.49298 72.8127 6.72852H70.8127C70.8127 8.20819 70.4604 9.13736 69.9294 9.69975C69.4073 10.2527 68.5547 10.6174 67.1812 10.627L67.1952 12.6269ZM72.8127 6.72852C72.8127 5.71237 72.5489 4.76845 71.8481 4.08904C71.1531 3.41521 70.1975 3.1665 69.1701 3.1665V5.1665C69.9045 5.1665 70.2701 5.3448 70.456 5.52497C70.6361 5.69957 70.8127 6.03666 70.8127 6.72852H72.8127ZM69.1701 3.1665C68.6617 3.1665 68.2308 3.18273 67.8953 3.22143L68.1246 5.20825C68.3478 5.1825 68.6903 5.1665 69.1701 5.1665V3.1665ZM67.0161 4.10465L66.1943 11.5168L68.1821 11.7371L69.0039 4.32504L67.0161 4.10465ZM11.1333 52.2749L12.1197 52.4393L12.1232 52.4185L12.1257 52.3976L11.1333 52.2749ZM2.41602 35.5493L3.40005 35.7274L3.40066 35.7239L2.41602 35.5493ZM3.96289 30.5703L3.12259 30.0282L3.12079 30.031L3.96289 30.5703ZM6.2832 28.4756L5.88193 27.5596L5.8801 27.5604L6.2832 28.4756ZM12.4707 27.8472L12.2983 28.8322L12.3121 28.8346L12.3259 28.8366L12.4707 27.8472ZM13.2119 27.96L13.506 27.0042L13.4576 26.9893L13.408 26.9794L13.2119 27.96ZM13.4214 28.3628L14.4138 28.4855L14.4214 28.4244V28.3628H13.4214ZM13.0508 31.3599L14.0392 31.5119L14.0414 31.4973L14.0432 31.4826L13.0508 31.3599ZM11.5361 31.6499L11.3828 32.6381L11.3911 32.6394L11.3995 32.6405L11.5361 31.6499ZM7.66895 32.2944L8.36151 33.0159L8.36887 33.0086L7.66895 32.2944ZM6.46045 35.2915L5.47645 35.1132L5.47545 35.1189L6.46045 35.2915ZM5.70312 41.2373L6.6982 41.3364L6.69825 41.336L5.70312 41.2373ZM9.47363 49.0845L9.60298 50.0761L9.61355 50.0746L9.47363 49.0845ZM11.5039 49.2778L12.4963 49.4006L12.5039 49.3394V49.2778H11.5039ZM10.1469 52.1105C10.1448 52.1231 10.147 52.1014 10.1643 52.0593C10.1814 52.0178 10.2235 51.9317 10.3134 51.8417L11.7276 53.2559C12.0014 52.9822 12.086 52.6416 12.1197 52.4393L10.1469 52.1105ZM10.3134 51.8417C10.4077 51.7474 10.4974 51.6974 10.5246 51.6826C10.5623 51.6619 10.5911 51.6499 10.6018 51.6455C10.6233 51.6368 10.6293 51.6359 10.6075 51.6424C10.5669 51.6544 10.4902 51.6742 10.3664 51.702C10.123 51.7567 9.75725 51.829 9.26159 51.9196L9.62122 53.887C10.1246 53.795 10.5215 53.717 10.8045 53.6535C10.9439 53.6222 11.0713 53.5909 11.1757 53.56C11.2264 53.545 11.2901 53.5247 11.3546 53.4985C11.3711 53.4918 11.5621 53.4214 11.7276 53.2559L10.3134 51.8417ZM9.26159 51.9196C8.32218 52.0913 7.3726 52.1772 6.41211 52.1772V54.1772C7.49263 54.1772 8.56259 54.0805 9.62122 53.887L9.26159 51.9196ZM6.41211 52.1772C4.97144 52.1772 3.99803 51.7234 3.33363 50.9149L1.78844 52.1847C2.90724 53.5461 4.50122 54.1772 6.41211 54.1772V52.1772ZM3.33363 50.9149C2.63149 50.0605 2.22363 48.8333 2.22363 47.1187H0.223633C0.223633 49.1423 0.707375 50.8692 1.78844 52.1847L3.33363 50.9149ZM2.22363 47.1187C2.22363 43.8754 2.61237 40.0808 3.40004 35.7274L1.43199 35.3713C0.629819 39.8049 0.223633 43.7232 0.223633 47.1187H2.22363ZM3.40066 35.7239C3.81653 33.3779 4.3067 31.8877 4.80499 31.1096L3.12079 30.031C2.39448 31.1651 1.85339 32.9941 1.43137 35.3748L3.40066 35.7239ZM4.80319 31.1124C5.36372 30.2436 5.99703 29.6943 6.68631 29.3907L5.8801 27.5604C4.76469 28.0517 3.85112 28.899 3.12259 30.0282L4.80319 31.1124ZM6.68448 29.3915C7.68105 28.9549 8.747 28.7344 9.89258 28.7344V26.7344C8.48151 26.7344 7.14121 27.0079 5.88193 27.5596L6.68448 29.3915ZM9.89258 28.7344C11.1954 28.7344 11.9681 28.7744 12.2983 28.8322L12.6431 26.8621C12.1139 26.7695 11.1678 26.7344 9.89258 26.7344V28.7344ZM12.3259 28.8366C12.5454 28.8688 12.7151 28.8939 12.8359 28.9123C12.97 28.9327 13.0173 28.9408 13.0158 28.9405L13.408 26.9794C13.3211 26.962 13.0358 26.9192 12.6155 26.8577L12.3259 28.8366ZM12.9178 28.9157C12.8322 28.8894 12.7411 28.8433 12.6576 28.7727C12.5747 28.7026 12.5182 28.6242 12.4818 28.5542C12.4152 28.4261 12.4214 28.3381 12.4214 28.3628H14.4214C14.4214 28.1619 14.3927 27.894 14.2562 27.6315C14.1027 27.3364 13.8418 27.1075 13.506 27.0042L12.9178 28.9157ZM12.4289 28.2401L12.0583 31.2371L14.0432 31.4826L14.4138 28.4855L12.4289 28.2401ZM12.0624 31.2078C12.0527 31.2712 12.0521 31.1855 12.1454 31.0644C12.1987 30.995 12.2814 30.9165 12.3981 30.8582C12.5156 30.7994 12.6321 30.7788 12.7285 30.7788V32.7788C13.1339 32.7788 13.4932 32.5925 13.7306 32.2838C13.9313 32.023 14.0059 31.7279 14.0392 31.5119L12.0624 31.2078ZM12.7285 30.7788C12.6397 30.7788 12.3172 30.7482 11.6728 30.6593L11.3995 32.6405C12.0012 32.7235 12.4735 32.7788 12.7285 32.7788V30.7788ZM11.6895 30.6617C11.043 30.5614 10.4813 30.5049 10.0215 30.5049V32.5049C10.3351 32.5049 10.7831 32.545 11.3828 32.6381L11.6895 30.6617ZM10.0215 30.5049C8.82759 30.5049 7.75354 30.8114 6.96902 31.5802L8.36887 33.0086C8.65857 32.7247 9.15288 32.5049 10.0215 32.5049V30.5049ZM6.97641 31.573C6.19577 32.3225 5.75073 33.5993 5.47647 35.1132L7.44443 35.4698C7.70728 34.0189 8.0679 33.2977 8.36148 33.0158L6.97641 31.573ZM5.47545 35.1189C5.21145 36.626 4.95613 38.6358 4.708 41.1386L6.69825 41.336C6.94426 38.8544 7.19382 36.9004 7.44545 35.4641L5.47545 35.1189ZM4.70805 41.1382C4.46003 43.6292 4.33252 45.5698 4.33252 46.9414H6.33252C6.33252 45.6704 6.45208 43.8083 6.6982 41.3364L4.70805 41.1382ZM4.33252 46.9414C4.33252 47.8458 4.52941 48.7109 5.09846 49.3555C5.68851 50.0239 6.51878 50.2778 7.39502 50.2778V48.2778C6.89626 48.2778 6.69528 48.1423 6.59783 48.0319C6.47938 47.8978 6.33252 47.5946 6.33252 46.9414H4.33252ZM7.39502 50.2778C7.865 50.2778 8.61671 50.2047 9.60297 50.0761L9.34429 48.0929C8.35399 48.222 7.71996 48.2778 7.39502 48.2778V50.2778ZM9.61355 50.0746C10.1056 50.0051 10.4871 49.9537 10.7607 49.9198C11.0663 49.8819 11.1715 49.875 11.1655 49.875V47.875C11.0199 47.875 10.7733 47.903 10.5149 47.9349C10.2246 47.9709 9.82999 48.0242 9.33372 48.0943L9.61355 50.0746ZM11.1655 49.875C11.074 49.875 10.8389 49.8395 10.6536 49.6189C10.5743 49.5245 10.5368 49.432 10.5198 49.3712C10.5114 49.3412 10.5075 49.3175 10.5057 49.3026C10.5039 49.2876 10.5039 49.2789 10.5039 49.2778H12.5039C12.5039 49.0278 12.455 48.654 12.185 48.3325C11.8869 47.9777 11.4827 47.875 11.1655 47.875V49.875ZM10.5115 49.1551L10.1409 52.1522L12.1257 52.3976L12.4963 49.4006L10.5115 49.1551ZM19.0314 28.2822L20.0251 28.394L20.0314 28.3383V28.2822H19.0314ZM16.7272 48.7622L15.7335 48.6504L15.6033 49.807L16.7663 49.7614L16.7272 48.7622ZM22.8986 48.5205L22.937 47.5212L22.8982 47.5198L22.8594 47.5213L22.8986 48.5205ZM23.3175 48.9395L24.3097 49.0641L24.3175 49.002V48.9395H23.3175ZM22.8986 52.2749L21.9063 52.1503L21.9052 52.1603L22.8986 52.2749ZM22.4796 52.71L22.5153 53.7094L22.5231 53.709L22.4796 52.71ZM12.5538 53.0645V54.0645H12.5717L12.5895 54.0638L12.5538 53.0645ZM12.2155 52.7583L11.2218 52.646L11.2155 52.702V52.7583H12.2155ZM14.9708 28.3789L13.9844 28.2145L13.9801 28.2405L13.9772 28.2666L14.9708 28.3789ZM15.0675 28.105L14.3604 27.3979L14.3212 27.437L14.2867 27.4803L15.0675 28.105ZM15.3737 28.0083L15.3389 27.0089L15.3206 27.0095L15.3024 27.0108L15.3737 28.0083ZM18.6124 27.8955L18.6509 26.8962L18.6143 26.8948L18.5776 26.8961L18.6124 27.8955ZM18.0377 28.1704L15.7335 48.6504L17.7209 48.874L20.0251 28.394L18.0377 28.1704ZM16.7663 49.7614L22.9377 49.5197L22.8594 47.5213L16.6881 47.763L16.7663 49.7614ZM22.8601 49.5198C22.8525 49.5195 22.6762 49.5109 22.5057 49.3404C22.3285 49.1633 22.3175 48.9725 22.3175 48.9395H24.3175C24.3175 48.6379 24.2367 48.243 23.9199 47.9262C23.6097 47.616 23.2239 47.5323 22.937 47.5212L22.8601 49.5198ZM22.3253 48.8148L21.9064 52.1503L23.8908 52.3995L24.3097 49.0641L22.3253 48.8148ZM21.9052 52.1603C21.9052 52.1601 21.9084 52.1307 21.9274 52.0838C21.9473 52.0346 21.9845 51.9669 22.0493 51.8995C22.1963 51.7469 22.365 51.714 22.4362 51.7109L22.5231 53.709C22.8413 53.6952 23.2034 53.5844 23.49 53.2868C23.7618 53.0045 23.8605 52.6624 23.892 52.3895L21.9052 52.1603ZM22.4439 51.7106L12.5182 52.0651L12.5895 54.0638L22.5153 53.7093L22.4439 51.7106ZM12.5538 52.0645C12.5718 52.0645 12.772 52.0664 12.971 52.2464C13.1889 52.4436 13.2155 52.679 13.2155 52.7583H11.2155C11.2155 53.0418 11.2984 53.4302 11.6291 53.7295C11.9409 54.0115 12.3103 54.0645 12.5538 54.0645V52.0645ZM13.2091 52.8706L15.9645 28.4912L13.9772 28.2666L11.2218 52.646L13.2091 52.8706ZM15.9572 28.5433C15.9615 28.5177 15.9627 28.5223 15.9541 28.5466C15.9469 28.567 15.9191 28.6413 15.8484 28.7297L14.2867 27.4803C14.0784 27.7406 14.0129 28.0436 13.9844 28.2145L15.9572 28.5433ZM15.7746 28.8121C15.6511 28.9356 15.5287 28.9804 15.4855 28.9941C15.4384 29.009 15.4188 29.0076 15.4449 29.0058L15.3024 27.0108C15.114 27.0243 14.687 27.0713 14.3604 27.3979L15.7746 28.8121ZM15.4085 29.0077L18.6472 28.8949L18.5776 26.8961L15.3389 27.0089L15.4085 29.0077ZM18.574 28.8948C18.5731 28.8947 18.537 28.8936 18.4795 28.8744C18.419 28.8542 18.3331 28.8133 18.2484 28.735C18.0561 28.5576 18.0314 28.3494 18.0314 28.2822H20.0314C20.0314 27.968 19.9368 27.5718 19.6049 27.2654C19.2939 26.9783 18.9194 26.9066 18.6509 26.8962L18.574 28.8948ZM25.6887 51.6304L24.9306 52.2824L25.6887 51.6304ZM25.5437 35.4365L24.5647 35.2327L24.5644 35.2344L25.5437 35.4365ZM28.2669 29.1201L27.5971 28.3775L27.5912 28.383L28.2669 29.1201ZM36.6941 29.2651L35.9327 29.9135L35.9365 29.9178L36.6941 29.2651ZM37.7898 39.0298L38.7857 39.1203L38.7858 39.1199L37.7898 39.0298ZM37.0325 44.6694L38.0131 44.8656L38.0133 44.8642L37.0325 44.6694ZM36.2591 47.9727L35.3032 47.6786L35.3004 47.6881L36.2591 47.9727ZM34.1321 51.7754L33.4677 51.028L33.4627 51.0325L34.1321 51.7754ZM32.8269 45.6685L31.8387 45.5154L31.8386 45.5164L32.8269 45.6685ZM33.4876 32.0688L32.695 32.6786L32.6998 32.6849L32.7048 32.6911L33.4876 32.0688ZM29.5721 35.2271L28.5869 35.0552L28.5868 35.0557L29.5721 35.2271ZM28.7986 41.2695L29.7935 41.3707L29.7935 41.3703L28.7986 41.2695ZM28.9114 48.8267L28.1286 49.4489L28.1374 49.46L28.1465 49.4708L28.9114 48.8267ZM29.7815 52.2417C28.1824 52.2417 27.1312 51.774 26.4469 50.9783L24.9306 52.2824C26.094 53.6352 27.7713 54.2417 29.7815 54.2417V52.2417ZM26.4469 50.9783C25.7005 50.1104 25.303 49.0091 25.303 47.6021H23.303C23.303 49.4177 23.8293 51.0019 24.9306 52.2824L26.4469 50.9783ZM25.303 47.6021C25.303 43.5662 25.7097 39.5788 26.5231 35.6387L24.5644 35.2344C23.7235 39.3079 23.303 43.4308 23.303 47.6021H25.303ZM26.5227 35.6403C27.172 32.5218 28.0309 30.693 28.9426 29.8573L27.5912 28.383C26.1825 29.6742 25.226 32.0564 24.5647 35.2327L26.5227 35.6403ZM28.9366 29.8627C29.8109 29.0742 30.9988 28.6377 32.6013 28.6377V26.6377C30.616 26.6377 28.9143 27.1895 27.5971 28.3775L28.9366 29.8627ZM32.6013 28.6377C34.1973 28.6377 35.2475 29.1087 35.9327 29.9134L37.4555 28.6168C36.2931 27.2517 34.6148 26.6377 32.6013 26.6377V28.6377ZM35.9365 29.9178C36.6972 30.8009 37.096 31.8987 37.096 33.2773H39.096C39.096 31.4763 38.5602 29.8993 37.4518 28.6125L35.9365 29.9178ZM37.096 33.2773C37.096 34.8166 36.9963 36.7021 36.7939 38.9397L38.7858 39.1199C38.9915 36.8457 39.096 34.8963 39.096 33.2773H37.096ZM36.7939 38.9393C36.5917 41.1637 36.3433 43.0062 36.0517 44.4747L38.0133 44.8642C38.3233 43.3034 38.5797 41.3861 38.7857 39.1203L36.7939 38.9393ZM36.0519 44.4733C35.7522 45.9718 35.5024 47.0314 35.3033 47.6786L37.2148 48.2667C37.4454 47.5174 37.7112 46.3749 38.0131 44.8656L36.0519 44.4733ZM35.3004 47.6881C35.1159 48.3095 34.8559 48.9498 34.5161 49.6094L36.294 50.5253C36.6847 49.767 36.994 49.0108 37.2177 48.2573L35.3004 47.6881ZM34.5161 49.6094C34.1945 50.2336 33.8404 50.6967 33.4677 51.028L34.7965 52.5228C35.3906 51.9947 35.8851 51.3191 36.294 50.5253L34.5161 49.6094ZM33.4627 51.0325C32.6032 51.8069 31.4123 52.2417 29.7815 52.2417V54.2417C31.7816 54.2417 33.4911 53.699 34.8015 52.5183L33.4627 51.0325ZM30.2005 50.439C31.2538 50.439 32.1028 49.9264 32.7008 49.0679C33.2652 48.2577 33.6122 47.1408 33.8153 45.8205L31.8386 45.5164C31.655 46.7098 31.3709 47.4781 31.0597 47.9248C30.7823 48.3231 30.5114 48.439 30.2005 48.439V50.439ZM33.8152 45.8215C34.0764 44.1342 34.3362 42.0431 34.595 39.5521L32.6057 39.3454C32.3489 41.8173 32.0931 43.8727 31.8387 45.5154L33.8152 45.8215ZM34.595 39.5521C34.8527 37.0716 34.9871 35.2793 34.9871 34.2119H32.9871C32.9871 35.1641 32.8636 36.863 32.6057 39.3454L34.595 39.5521ZM34.9871 34.2119C34.9871 33.1498 34.8234 32.1423 34.2704 31.4466L32.7048 32.6911C32.8178 32.8333 32.9871 33.2545 32.9871 34.2119H34.9871ZM34.2802 31.4591C33.7408 30.7579 32.9651 30.4404 32.1018 30.4404V32.4404C32.4417 32.4404 32.5899 32.5419 32.695 32.6786L34.2802 31.4591ZM32.1018 30.4404C31.0693 30.4404 30.2642 30.992 29.7033 31.8316C29.1687 32.6318 28.8168 33.7375 28.5869 35.0552L30.5572 35.3989C30.7677 34.1922 31.0577 33.4046 31.3663 32.9426C31.6487 32.52 31.8883 32.4404 32.1018 32.4404V30.4404ZM28.5868 35.0557C28.3231 36.5721 28.0625 38.6131 27.8037 41.1688L29.7935 41.3703C30.0503 38.8342 30.3054 36.8468 30.5573 35.3984L28.5868 35.0557ZM27.8037 41.1684C27.546 43.7029 27.4119 45.537 27.4119 46.6353H29.4119C29.4119 45.6495 29.5356 43.9064 29.7935 41.3707L27.8037 41.1684ZM27.4119 46.6353C27.4119 47.7206 27.5727 48.7496 28.1286 49.4489L29.6942 48.2044C29.5841 48.0659 29.4119 47.6339 29.4119 46.6353H27.4119ZM28.1465 49.4708C28.6726 50.0956 29.3782 50.439 30.2005 50.439V48.439C29.9915 48.439 29.8377 48.3742 29.6763 48.1825L28.1465 49.4708ZM44.9467 28.2822L45.9405 28.3937L45.9467 28.3381V28.2822H44.9467ZM43.0937 44.7983L44.0867 44.9162L44.0874 44.9098L43.0937 44.7983ZM47.122 45.1689L48.1154 45.2833L48.1157 45.2805L47.122 45.1689ZM49.0072 28.3789L48.0164 28.2438L48.0148 28.2555L48.0135 28.2673L49.0072 28.3789ZM49.4423 28.0083L49.4027 27.0091L49.4007 27.0092L49.4423 28.0083ZM52.6972 27.8794L52.7372 26.8802L52.6974 26.8786L52.6576 26.8802L52.6972 27.8794ZM53.1 28.2661L54.0938 28.3775L54.1 28.322V28.2661H53.1ZM51.247 44.7983L50.2532 44.687L50.2531 44.6879L51.247 44.7983ZM48.6366 51.7432L49.3068 52.4854L49.311 52.4815L48.6366 51.7432ZM40.2255 51.856L39.5184 52.5631L39.5266 52.5711L40.2255 51.856ZM38.9848 45.0078L37.9913 44.8942L37.9912 44.8949L38.9848 45.0078ZM40.8862 28.3789L39.8978 28.2268L39.8948 28.246L39.8926 28.2653L40.8862 28.3789ZM41.289 28.0083L41.2543 27.0089L41.236 27.0095L41.2177 27.0108L41.289 28.0083ZM44.5439 27.8955L44.5838 26.8963L44.5465 26.8948L44.5092 26.8961L44.5439 27.8955ZM43.9529 28.1707L42.0999 44.6868L44.0874 44.9098L45.9405 28.3937L43.9529 28.1707ZM42.1006 44.6805C41.9502 45.9487 41.8681 46.9033 41.8681 47.5054H43.8681C43.8681 47.0333 43.9364 46.1831 44.0867 44.9162L42.1006 44.6805ZM41.8681 47.5054C41.8681 48.2418 42.0793 48.9258 42.5384 49.4997L44.1001 48.2503C43.9576 48.0722 43.8681 47.8432 43.8681 47.5054H41.8681ZM42.5384 49.4997C43.0973 50.1983 43.9346 50.439 44.7856 50.439V48.439C44.2831 48.439 44.1428 48.3036 44.1001 48.2503L42.5384 49.4997ZM44.7856 50.439C45.2992 50.439 45.7919 50.3077 46.2285 50.0212C46.6587 49.7389 46.9807 49.3414 47.2183 48.8878L45.4466 47.9598C45.3297 48.1831 45.2167 48.293 45.1312 48.3491C45.0521 48.401 44.9487 48.439 44.7856 48.439V50.439ZM47.2183 48.8878C47.6617 48.0412 47.9404 46.8038 48.1154 45.2833L46.1286 45.0546C45.9598 46.5204 45.7121 47.4529 45.4466 47.9598L47.2183 48.8878ZM48.1157 45.2805L50.001 28.4905L48.0135 28.2673L46.1282 45.0574L48.1157 45.2805ZM49.9981 28.514C49.9897 28.5758 49.9472 28.7352 49.7886 28.8703C49.6397 28.9972 49.4997 29.0068 49.4839 29.0074L49.4007 27.0092C49.1271 27.0206 48.7857 27.0973 48.4917 27.3478C48.1882 27.6063 48.0571 27.9457 48.0164 28.2438L49.9981 28.514ZM49.4819 29.0075L52.7368 28.8786L52.6576 26.8802L49.4027 27.0091L49.4819 29.0075ZM52.6572 28.8786C52.6542 28.8785 52.4802 28.872 52.3068 28.7055C52.1193 28.5256 52.1 28.322 52.1 28.2661H54.1C54.1 27.9631 54.0136 27.5716 53.6918 27.2627C53.3841 26.9674 53.0088 26.8911 52.7372 26.8802L52.6572 28.8786ZM52.1062 28.1547L50.2532 44.687L52.2408 44.9097L54.0938 28.3775L52.1062 28.1547ZM50.2531 44.6879C49.8839 48.0108 49.0479 50.0131 47.9622 51.0048L49.311 52.4815C50.9538 50.981 51.8581 48.3535 52.2409 44.9088L50.2531 44.6879ZM47.9665 51.0009C47.0786 51.8026 45.889 52.2417 44.3022 52.2417V54.2417C46.2817 54.2417 47.9818 53.6817 49.3068 52.4854L47.9665 51.0009ZM44.3022 52.2417C42.6994 52.2417 41.6263 51.8267 40.9244 51.1408L39.5266 52.5711C40.7153 53.7328 42.36 54.2417 44.3022 54.2417V52.2417ZM40.9326 51.1488C40.2467 50.463 39.8237 49.3824 39.8237 47.731H37.8237C37.8237 49.7103 38.3351 51.3798 39.5184 52.5631L40.9326 51.1488ZM39.8237 47.731C39.8237 46.9019 39.8748 46.032 39.9784 45.1207L37.9912 44.8949C37.8799 45.8743 37.8237 46.8198 37.8237 47.731H39.8237ZM39.9783 45.1214L41.8797 28.4925L39.8926 28.2653L37.9913 44.8942L39.9783 45.1214ZM41.8745 28.531C41.8797 28.4974 41.8811 28.5054 41.8694 28.5385C41.8631 28.5564 41.8497 28.591 41.8251 28.6349C41.801 28.678 41.7587 28.7434 41.6899 28.8121L40.2757 27.3979C40.1043 27.5693 40.023 27.7609 39.9834 27.8729C39.9395 27.9972 39.9141 28.1208 39.8978 28.2268L41.8745 28.531ZM41.6899 28.8121C41.5664 28.9356 41.444 28.9804 41.4008 28.9941C41.3537 29.009 41.3341 29.0076 41.3602 29.0058L41.2177 27.0108C41.0293 27.0243 40.6023 27.0713 40.2757 27.3979L41.6899 28.8121ZM41.3236 29.0077L44.5785 28.8949L44.5092 26.8961L41.2543 27.0089L41.3236 29.0077ZM44.5039 28.8947C44.5008 28.8946 44.3269 28.8881 44.1535 28.7216C43.966 28.5417 43.9467 28.3382 43.9467 28.2822H45.9467C45.9467 27.9792 45.8603 27.5877 45.5385 27.2789C45.2308 26.9835 44.8555 26.9072 44.5838 26.8963L44.5039 28.8947ZM55.3907 28.3789L54.4043 28.2145L54.4001 28.2398L54.3972 28.2653L55.3907 28.3789ZM65.5259 29.2974L64.7929 29.9775L64.7964 29.9813L65.5259 29.2974ZM65.8321 45.314L66.8174 45.4849L66.8176 45.4834L65.8321 45.314ZM63.8502 50.5669L64.6326 51.1896L64.6332 51.1889L63.8502 50.5669ZM59.9185 52.6455L60.0893 53.6309L60.1021 53.6285L59.9185 52.6455ZM56.9698 52.9194L57.0059 53.9188L57.0068 53.9187L56.9698 52.9194ZM52.9576 53.0645L52.9122 54.0634L52.9529 54.0653L52.9937 54.0638L52.9576 53.0645ZM52.6031 52.7583L51.6096 52.6447L51.6031 52.7013V52.7583H52.6031ZM59.0806 31.4888L58.8963 30.5059L58.1692 30.6422L58.0868 31.3774L59.0806 31.4888ZM57.1148 49.0361L56.121 48.9248L55.9851 50.1385L57.2017 50.0323L57.1148 49.0361ZM60.4341 48.1016L59.8211 47.3115L59.8145 47.3167L60.4341 48.1016ZM62.4644 39.8032L61.4699 39.6983L61.4695 39.7028L62.4644 39.8032ZM56.3771 28.5433C56.3792 28.5308 56.377 28.5524 56.3597 28.5945C56.3426 28.636 56.3005 28.7221 56.2106 28.8121L54.7964 27.3979C54.5226 27.6716 54.438 28.0122 54.4043 28.2145L56.3771 28.5433ZM56.2106 28.8121C56.101 28.9216 55.9938 28.9757 55.9602 28.9922C55.9144 29.0147 55.879 29.0271 55.8649 29.0318C55.8368 29.0413 55.8259 29.0426 55.8467 29.0381C55.8848 29.0299 55.961 29.0164 56.0879 28.9988C56.3369 28.9643 56.7129 28.923 57.2243 28.875L57.0376 26.8838C56.5177 26.9325 56.1068 26.9771 55.8133 27.0178C55.669 27.0378 55.5351 27.0593 55.4241 27.0833C55.3704 27.0949 55.3003 27.1116 55.2281 27.1359C55.1921 27.148 55.1385 27.1676 55.0784 27.1971C55.0304 27.2207 54.9126 27.2816 54.7964 27.3979L56.2106 28.8121ZM57.2243 28.875C58.2101 28.7826 59.587 28.7344 61.3687 28.7344V26.7344C59.5626 26.7344 58.1143 26.7828 57.0376 26.8838L57.2243 28.875ZM61.3687 28.7344C62.975 28.7344 64.0635 29.1914 64.7929 29.9775L66.259 28.6172C65.0548 27.3193 63.3718 26.7344 61.3687 26.7344V28.7344ZM64.7964 29.9813C65.5452 30.78 65.9761 31.9276 65.9761 33.5513H67.9761C67.9761 31.5655 67.4402 29.8772 66.2555 28.6134L64.7964 29.9813ZM65.9761 33.5513C65.9761 36.885 65.6025 40.7473 64.8465 45.1445L66.8176 45.4834C67.5871 41.0076 67.9761 37.0281 67.9761 33.5513H65.9761ZM64.8468 45.143C64.4512 47.4228 63.8303 48.9842 63.0671 49.9449L64.6332 51.1889C65.6961 49.8508 66.3965 47.9102 66.8174 45.4849L64.8468 45.143ZM63.0677 49.9441C62.4249 50.7518 61.3647 51.3582 59.7349 51.6625L60.1021 53.6285C62.0388 53.2668 63.5996 52.4875 64.6326 51.1896L63.0677 49.9441ZM59.7477 51.6602C59.0004 51.7897 58.065 51.8782 56.9328 51.9201L57.0068 53.9187C58.1948 53.8747 59.2253 53.7806 60.0893 53.6308L59.7477 51.6602ZM56.9337 51.9201L52.9215 52.0651L52.9937 54.0638L57.0059 53.9188L56.9337 51.9201ZM53.003 52.0655C53.009 52.0658 53.0474 52.0678 53.1057 52.0863C53.166 52.1055 53.2549 52.1449 53.3453 52.223C53.5574 52.4062 53.6031 52.6396 53.6031 52.7583H51.6031C51.6031 53.0704 51.7079 53.4515 52.0381 53.7367C52.3349 53.993 52.6798 54.0529 52.9122 54.0634L53.003 52.0655ZM53.5966 52.8719L56.3842 28.4925L54.3972 28.2653L51.6096 52.6447L53.5966 52.8719ZM58.0868 31.3774L56.121 48.9248L58.1086 49.1475L60.0744 31.6001L58.0868 31.3774ZM57.2017 50.0323C58.8292 49.8904 60.1952 49.5643 61.0538 48.8864L59.8145 47.3167C59.4484 47.6057 58.6016 47.9026 57.0279 48.0399L57.2017 50.0323ZM61.0471 48.8916C61.9653 48.1792 62.4618 46.957 62.7231 45.5258L60.7556 45.1666C60.5227 46.4424 60.149 47.0571 59.8211 47.3115L61.0471 48.8916ZM62.7231 45.5258C62.9771 44.1341 63.2219 42.2562 63.4594 39.9036L61.4695 39.7028C61.2342 42.0338 60.9957 43.8513 60.7556 45.1666L62.7231 45.5258ZM63.4589 39.9081C63.7078 37.5489 63.835 35.593 63.835 34.0508H61.835C61.835 35.4949 61.7152 37.374 61.4699 39.6983L63.4589 39.9081ZM63.835 34.0508C63.835 33.0241 63.5851 32.0653 62.8976 31.3779L61.4834 32.7921C61.6553 32.964 61.835 33.3157 61.835 34.0508H63.835ZM62.8976 31.3779C62.2406 30.7209 61.3785 30.4404 60.4341 30.4404V32.4404C60.9722 32.4404 61.281 32.5897 61.4834 32.7921L62.8976 31.3779ZM60.4341 30.4404C59.7415 30.4404 59.1809 30.4525 58.8963 30.5059L59.2649 32.4716C59.2553 32.4734 59.2741 32.4697 59.3393 32.4646C59.3987 32.46 59.4792 32.4556 59.5836 32.4519C59.7923 32.4444 60.0745 32.4404 60.4341 32.4404V30.4404Z" fill="black" fill-opacity="0.4"/>
<defs>
<linearGradient id="paint0_linear_81_82" x1="-1" y1="29" x2="77" y2="29" gradientUnits="userSpaceOnUse">
<stop stop-color="#FF6749"/>
<stop offset="1" stop-color="#FF8B17"/>
</linearGradient>
</defs>
</svg>
